PathFileType	4	(X/Y/Z)	C:\Users\Basilio\Documents\Thesis Gigler\squatting_fais\c3dfiles\077\SJ_pre3\markers_experimental.trc
DataRate	CameraRate	NumFrames	NumMarkers	Units	OrigDataRate	OrigDataStartFrame	OrigNumFrames
200.000000	200.000000	4	60	mm	200.000000	1066	1422
Frame#	Time	FHD			LBHD			RBHD			C7			T10			CLAV			LSHO			LUUPA			LMUPA			LDUPA			LLEP			LMEP			LRAD			LUL			LRFIN			RSHO			RUPA1			RMUPA			RDUPA			RLEP			RMEP			RRAD			RUL			RUFIN			LASI			RASI			USACR			LSACR			RSACR			LTHI1			LTHI2			LTHI3			LTHI4			LLFC			LMFC			LTIB1			LTIB2			LTIB3			LTIB4			LLMAL			LHEE			LMT1			LMT2			LMT5			RTHI			RTHI2			RTHI3			RTHI4			RLFC			RMFC			RTIB1			RTIB2			RTIB3			RTIB4			RLMAL			RMMAL			RHEE			RMT1			RMT2			RMT5			
		X1	Y1	Z1	X2	Y2	Z2	X3	Y3	Z3	X4	Y4	Z4	X5	Y5	Z5	X6	Y6	Z6	X7	Y7	Z7	X8	Y8	Z8	X9	Y9	Z9	X10	Y10	Z10	X11	Y11	Z11	X12	Y12	Z12	X13	Y13	Z13	X14	Y14	Z14	X15	Y15	Z15	X16	Y16	Z16	X17	Y17	Z17	X18	Y18	Z18	X19	Y19	Z19	X20	Y20	Z20	X21	Y21	Z21	X22	Y22	Z22	X23	Y23	Z23	X24	Y24	Z24	X25	Y25	Z25	X26	Y26	Z26	X27	Y27	Z27	X28	Y28	Z28	X29	Y29	Z29	X30	Y30	Z30	X31	Y31	Z31	X32	Y32	Z32	X33	Y33	Z33	X34	Y34	Z34	X35	Y35	Z35	X36	Y36	Z36	X37	Y37	Z37	X38	Y38	Z38	X39	Y39	Z39	X40	Y40	Z40	X41	Y41	Z41	X42	Y42	Z42	X43	Y43	Z43	X44	Y44	Z44	X45	Y45	Z45	X46	Y46	Z46	X47	Y47	Z47	X48	Y48	Z48	X49	Y49	Z49	X50	Y50	Z50	X51	Y51	Z51	X52	Y52	Z52	X53	Y53	Z53	X54	Y54	Z54	X55	Y55	Z55	X56	Y56	Z56	X57	Y57	Z57	X58	Y58	Z58	X59	Y59	Z59	X60	Y60	Z60	

1067	5.33	-155.2509765625	1821.580322265625	-937.0234375000002	-294.6264343261719	1707.157836914063	-1002.397033691406	-299.9519042968751	1707.794677734375	-856.679626464844	-361.0401000976563	1583.310913085938	-928.5023193359377	-393.8347473144532	1244.945556640625	-919.366882324219	-191.0406494140625	1523.515991210938	-930.3641357421877	-256.8577575683594	1554.445678710938	-1120.896728515625	-312.7574768066407	1417.836791992188	-1284.568603515625	-280.0331115722657	1379.340698242188	-1289.060424804688	-326.3251647949219	1366.955200195313	-1328.964965820313	-324.4309082031251	1304.071411132813	-1361.6298828125	-402.021209716797	1286.300415039063	-1325.008666992188	-296.7334289550782	1084.059936523438	-1151.713989257813	-259.5563049316407	1036.38916015625	-1206.30419921875	-250.578842163086	1058.7314453125	-1096.340209960938	-218.2144927978516	1559.3701171875	-737.4603881835939	-278.7030334472657	1427.031860351563	-558.5399780273439	-252.6466674804688	1383.96142578125	-559.8846435546876	-292.0081481933594	1372.171264648438	-515.6943359375001	-295.4456481933594	1306.787719726563	-488.4432373046876	-379.8834838867188	1295.513427734375	-514.9342651367189	-308.4255981445313	1078.682006835938	-675.8509521484376	-247.5899353027344	1044.814331054688	-636.1162719726564	-255.6429290771485	1075.861450195313	-732.1458129882814	-215.3642120361329	1042.324096679688	-1058.560302734375	-217.2273254394532	1050.750732421875	-783.562438964844	-412.7314758300782	1143.9111328125	-914.5039672851565	-423.5242919921876	1114.866577148438	-942.729675292969	-425.0274658203126	1113.102661132813	-887.583190917969	-334.9567871093751	841.6992187500002	-1133.738403320313	-320.4774780273438	759.1597900390626	-1145.303588867188	-273.4321289062501	751.1993408203126	-1142.685180664063	-358.5793762207032	711.8325195312501	-1135.548461914063	-354.3544006347657	562.1973876953126	-1135.114135742188	-333.2151489257813	515.0592041015626	-1013.432250976563	-324.9732055664063	336.8125000000001	-1124.789184570313	-367.7315673828126	307.5558471679688	-1198.196655273438	-330.9999694824219	298.7760009765626	-1170.593505859375	-333.2461853027344	213.3951110839844	-1157.573852539063	-403.7020568847657	104.6149368286133	-1211.997436523438	-443.4557495117189	47.14854812622071	-1161.588134765625	-227.5213623046876	58.83462524414064	-1193.231079101563	-236.0891876220704	59.52601242065431	-1234.9111328125	-356.5210876464844	101.6549072265625	-1135.65380859375	-378.9682312011719	736.5112915039064	-696.4317626953126	-351.6561279296876	675.9747924804689	-682.2879638671876	-317.8283691406251	671.1298217773439	-682.5579223632814	-388.9974670410157	604.5952758789064	-697.7189331054689	-392.3087768554689	536.5632324218751	-689.6604003906251	-339.6139831542969	497.9742736816407	-805.216247558594	-339.2102661132813	405.864227294922	-669.2332763671876	-406.0327148437501	330.2255554199219	-636.5319213867189	-359.3901977539063	324.4312133789063	-644.0535888671876	-344.3138732910157	274.3619995117188	-671.8889770507814	-415.3298950195314	99.63345336914065	-615.8311157226564	-363.8182983398438	94.89771270751955	-693.4875488281251	-455.5098876953126	45.25422668457032	-676.7178344726564	-241.9113311767579	59.47395706176759	-600.0600585937501	-255.905014038086	61.17441177368165	-564.9685668945314	-283.8537902832032	41.94137191772462	-521.7991943359376	
1068	5.335	-155.4905700683594	1821.6484375	-937.2839965820315	-295.0810241699219	1707.437744140625	-1002.687744140625	-300.4314575195313	1708.10693359375	-857.050231933594	-361.5147094726563	1583.16552734375	-928.7709960937502	-394.1543884277345	1245.014282226563	-919.438659667969	-191.6727142333985	1523.610961914063	-930.6074829101565	-257.2387084960938	1554.535400390625	-1121.157958984375	-312.7247009277344	1417.96484375	-1285.011474609375	-280.0459899902344	1379.229248046875	-1289.25830078125	-326.0963745117188	1367.083862304688	-1329.200317382813	-324.6295776367188	1304.116821289063	-1361.907836914063	-402.1414489746095	1286.46484375	-1325.407958984375	-296.9621582031251	1084.265747070313	-1152	-259.9996948242188	1036.535278320313	-1206.645629882813	-250.6446380615235	1059.032348632813	-1096.56884765625	-218.7953643798829	1559.481567382813	-737.6800537109376	-279.0752258300782	1427.171508789063	-558.6572875976564	-253.1690979003907	1383.961669921875	-560.0292968750001	-292.4610595703126	1372.199462890625	-515.8779907226564	-295.9480590820313	1306.884155273438	-488.5884704589845	-380.3432006835938	1295.748657226563	-515.0579223632814	-309.0016479492188	1078.73681640625	-675.9401855468751	-247.989730834961	1045.053588867188	-636.1653442382814	-256.0659179687501	1075.939819335938	-732.3177490234376	-215.3850402832032	1042.593017578125	-1058.838256835938	-218.5403289794922	1050.396606445313	-784.734558105469	-413.028045654297	1143.754272460938	-914.7327270507815	-423.6971435546876	1114.733276367188	-942.9250488281252	-425.2462463378907	1113.093872070313	-887.7259521484377	-334.2549133300782	841.571960449219	-1133.744750976563	-319.9427795410157	759.1505126953126	-1145.58349609375	-272.9085693359376	751.2098388671876	-1142.959838867188	-357.9774780273438	711.8715820312501	-1135.706909179688	-353.9044494628907	562.1934814453126	-1135.27783203125	-333.4614257812501	515.0955200195314	-1013.321899414063	-324.8367919921876	336.8090209960938	-1124.8583984375	-367.5787963867188	307.6039733886719	-1198.313720703125	-330.4541015625001	298.4727783203126	-1170.450805664063	-333.2163085937501	213.4789123535157	-1157.493041992188	-403.7298583984376	104.6635513305664	-1211.976318359375	-443.4566040039064	47.13495254516602	-1161.59375	-227.5993041992188	58.96356582641603	-1193.211059570313	-236.1693725585938	59.6893997192383	-1234.9697265625	-356.5997619628907	101.6161727905274	-1135.69580078125	-378.9464416503907	736.5152587890626	-696.5418701171876	-351.6122436523438	675.9066772460939	-682.4354858398439	-317.7774658203126	671.2481079101564	-682.7440795898439	-388.8916625976564	604.6243286132814	-697.7909545898439	-392.2967529296876	536.5686645507814	-689.7489624023439	-338.3562011718751	498.050750732422	-804.712829589844	-339.2409973144532	405.8439025878907	-669.2805786132814	-406.105926513672	330.1952209472657	-636.6004638671876	-359.4445495605469	324.3925170898438	-644.1030883789064	-344.2584838867188	274.3219604492188	-671.8576049804689	-415.2963256835939	99.65632629394534	-615.8947753906251	-363.9906311035157	95.01342010498048	-693.5809936523439	-455.5194091796876	45.29722976684571	-676.7134399414064	-241.8990783691407	59.48151779174806	-600.0715332031251	-255.9195251464844	61.1622772216797	-564.9661865234376	-283.8271179199219	41.9328842163086	-521.7943725585939	
1069	5.34	-156.092529296875	1821.882202148438	-937.8052978515627	-295.3811340332032	1707.541748046875	-1002.966613769531	-300.8881835937501	1708.352416992188	-857.2593994140627	-361.9974060058594	1583.252685546875	-928.9802856445315	-394.4034729003907	1245.073120117188	-919.5440063476565	-192.2982025146485	1523.526245117188	-930.7772216796877	-257.6958007812501	1554.49755859375	-1121.38232421875	-312.5456542968751	1417.895874023438	-1285.435668945313	-280.0570068359376	1379.096557617188	-1289.50634765625	-325.8096923828126	1366.990356445313	-1329.054321289063	-324.7026977539063	1304.1171875	-1362.223510742188	-402.3152465820314	1286.532592773438	-1325.809204101563	-297.0632324218751	1084.405517578125	-1152.244873046875	-260.3891601562501	1036.634765625	-1206.984130859375	-250.9623718261719	1059.0478515625	-1096.81103515625	-219.3088836669922	1559.562255859375	-737.8455200195314	-279.5515136718751	1427.215454101563	-558.7958374023439	-253.6180419921876	1383.943359375	-560.2620239257814	-292.8817443847657	1372.300659179688	-516.0380859375001	-296.4425659179688	1306.974731445313	-488.6820373535157	-380.8135681152344	1295.9189453125	-515.1243896484376	-309.5001831054688	1078.870483398438	-676.0688476562501	-248.3717956542969	1045.176513671875	-636.2669067382814	-256.5365905761719	1076.05029296875	-732.5213012695314	-215.3734741210938	1042.703491210938	-1059.02001953125	-218.907455444336	1050.445678710938	-784.9185791015627	-413.3096008300782	1143.632568359375	-915.0145263671877	-423.8471069335939	1114.666015625	-943.1885375976565	-425.7019958496095	1112.894897460938	-887.959655761719	-334.0666503906251	841.700378417969	-1134.055419921875	-320.4305725097657	759.4254760742189	-1146.049194335938	-272.5956420898438	751.1506958007814	-1143.227416992188	-357.5447082519532	711.8410034179689	-1136.003173828125	-353.5906982421876	562.1409301757814	-1135.348510742188	-333.7419433593751	515.1381225585939	-1013.198486328125	-324.7633361816407	336.8244018554688	-1124.960083007813	-367.4149780273438	307.5489807128907	-1198.424194335938	-330.7612915039063	298.5862426757813	-1170.745849609375	-333.1318969726563	213.4901275634766	-1157.557983398438	-403.7296447753907	104.5907592773438	-1211.990356445313	-443.4786376953126	47.15283584594727	-1161.626831054688	-227.4798278808594	58.81798171997072	-1193.218872070313	-236.243392944336	59.68625640869142	-1234.979125976563	-356.5121459960938	101.6705474853516	-1135.698486328125	-378.8991699218751	736.5137939453126	-696.7674560546876	-351.5091247558594	675.9464721679689	-682.6069335937501	-317.6944885253907	671.2625122070314	-682.9522705078126	-388.752410888672	604.5723876953126	-697.7932739257814	-392.3352355957032	536.5139770507814	-689.8668823242189	-337.9910583496094	498.1671447753907	-804.634704589844	-339.3150634765626	405.8917541503907	-669.3246459960939	-406.1587524414064	330.1641845703126	-636.6691284179689	-359.5963439941407	324.3234558105469	-644.1343994140626	-344.3307495117188	274.3511352539063	-671.9149169921876	-415.312225341797	99.70396423339847	-615.8930053710939	-363.8782043457032	94.96514892578126	-693.6062622070314	-455.5514221191407	45.29112243652344	-676.6715698242189	-241.8943328857422	59.52036285400392	-600.0680541992189	-255.8508911132813	61.19548416137697	-564.9911499023439	-283.8595886230469	41.96986770629884	-521.8150024414064	
1070	5.345	-156.3436737060547	1821.72998046875	-938.1389770507815	-295.7175903320313	1707.332397460938	-1003.222229003906	-301.2406616210938	1709.116577148438	-857.5784912109377	-362.5812683105469	1583.175048828125	-929.3213500976565	-394.7869567871095	1245.049682617188	-919.6790161132815	-192.8022460937501	1523.524780273438	-930.8892211914065	-258.0020141601563	1554.460815429688	-1121.56591796875	-312.4435119628907	1417.854858398438	-1285.835571289063	-279.7193298339844	1378.797485351563	-1289.701049804688	-325.8198547363282	1366.893920898438	-1329.24658203125	-324.7596435546876	1304.065795898438	-1362.458129882813	-402.6035766601564	1286.58154296875	-1326.217163085938	-297.2770385742188	1084.448486328125	-1152.470581054688	-260.5712890625001	1036.723876953125	-1207.212646484375	-251.2332153320313	1059.093627929688	-1097.152587890625	-219.7925262451172	1559.612426757813	-738.0042114257814	-279.9555358886719	1427.290649414063	-558.9169311523439	-254.1260070800782	1383.864379882813	-560.5326538085939	-293.3062133789063	1372.293212890625	-516.2254638671876	-296.9182434082032	1307.066772460938	-488.786102294922	-381.2448730468751	1295.983032226563	-515.2217407226564	-310.1413269042969	1078.815185546875	-676.1692504882814	-248.8484497070313	1045.310913085938	-636.4895629882814	-256.9806823730469	1076.162231445313	-732.7145385742189	-215.3930969238282	1042.848876953125	-1059.219360351563	-219.1626739501954	1050.431274414063	-784.9366455078127	-413.5403747558595	1143.579956054688	-915.3302001953127	-424.0836181640626	1114.448608398438	-943.4947509765627	-425.9278564453126	1112.73388671875	-888.2380371093752	-333.6838073730469	841.725036621094	-1134.29345703125	-320.1191101074219	759.3738403320314	-1146.388061523438	-272.0266113281251	751.1100463867189	-1143.611694335938	-357.1812744140626	711.9147949218751	-1136.296875	-354.8559875488282	562.7359619140626	-1135.9931640625	-334.0569763183594	515.2399902343751	-1013.095153808594	-324.6477661132813	336.8053283691407	-1125.021850585938	-367.2274780273438	307.5681762695313	-1198.522094726563	-330.6416320800782	298.6212158203126	-1170.801879882813	-333.2431945800782	214.4019165039063	-1157.359130859375	-403.0970764160157	104.4077072143555	-1211.997680664063	-443.4469604492189	47.13874435424805	-1161.5830078125	-227.4919586181641	58.83552932739259	-1193.264892578125	-235.9813232421876	59.75616455078126	-1234.821044921875	-356.6099548339844	101.5620727539063	-1135.721923828125	-378.8276672363282	736.4735107421876	-696.9935302734376	-351.3374633789063	675.9963989257814	-682.9033203125001	-317.5344543457032	671.3677978515626	-683.1262817382814	-388.6210021972657	604.6007690429689	-697.8896484375001	-392.4240722656251	536.3826293945314	-690.0171508789064	-337.5889587402344	498.227996826172	-804.6215820312502	-339.3476867675782	405.9205932617189	-669.3346557617189	-406.1930541992189	330.1735839843751	-636.6978759765626	-359.6193542480469	324.3280944824219	-644.1418457031251	-344.2421875000001	274.3756103515626	-671.8771362304689	-415.3124389648439	99.65985870361331	-615.9106445312501	-363.8819885253907	94.94192504882814	-693.6334228515626	-455.4999389648439	45.26791381835938	-676.7553710937501	-241.912338256836	59.45961380004884	-600.0605468750001	-255.8401794433594	61.21092987060548	-564.9890136718751	-283.8356323242188	41.98141098022462	-521.7864379882814	
